<?xml version="1.0" standalone="no"?>
<!DOCTYPE svg PUBLIC "-//W3C//DTD SVG 20010904//EN"
 "http://www.w3.org/TR/2001/REC-SVG-20010904/DTD/svg10.dtd">
<svg version="1.0" xmlns="http://www.w3.org/2000/svg"
 width="937.000000pt" height="937.000000pt" viewBox="0 0 937.000000 937.000000"
 preserveAspectRatio="xMidYMid meet">
<metadata>
Created by potrace 1.11, written by Peter Selinger 2001-2013
</metadata>
<g transform="translate(0.000000,937.000000) scale(0.100000,-0.100000)"
fill="#000000" stroke="none">
<path d="M6942 9328 c-21 -21 -14 -48 11 -47 12 1 46 -2 75 -6 35 -5 52 -4 52
3 0 16 -41 42 -68 42 -13 0 -31 4 -41 10 -12 6 -22 5 -29 -2z"/>
<path d="M7203 9333 c-20 -8 -15 -33 8 -41 15 -6 28 -3 44 12 13 11 21 24 19
28 -6 9 -52 9 -71 1z"/>
<path d="M6550 9190 c-25 -5 -72 -9 -105 -9 -57 -1 -63 -4 -98 -39 -47 -48
-60 -104 -29 -121 22 -12 52 -5 52 11 0 23 30 35 100 42 71 7 96 15 165 53 17
9 46 22 65 29 19 7 35 18 35 26 0 16 -114 21 -185 8z"/>
<path d="M7490 9059 c-30 -4 -89 -22 -130 -39 -170 -72 -183 -76 -355 -100
-90 -13 -172 -39 -257 -81 -55 -28 -59 -28 -76 -12 -9 10 -34 27 -54 38 -33
17 -43 18 -82 7 -29 -7 -54 -8 -76 -2 -24 7 -40 5 -62 -6 -22 -11 -66 -17
-152 -18 -120 -3 -172 -12 -274 -48 -29 -10 -68 -18 -86 -18 -33 0 -244 -99
-381 -179 -38 -22 -94 -48 -124 -57 -77 -22 -145 -58 -170 -90 -12 -15 -21
-30 -21 -35 0 -13 -62 -74 -100 -99 -72 -48 -122 -104 -156 -179 -19 -41 -33
-80 -30 -87 3 -7 0 -45 -5 -86 -8 -58 -15 -78 -34 -95 -14 -12 -25 -30 -25
-41 0 -29 -61 -80 -116 -97 -41 -12 -91 -49 -284 -216 -129 -111 -244 -208
-255 -218 -11 -9 -40 -17 -65 -19 -85 -5 -117 -19 -138 -60 -13 -26 -34 -45
-73 -64 -30 -15 -62 -28 -71 -28 -9 0 -44 17 -77 38 -49 30 -64 45 -77 80 -14
34 -15 48 -5 68 25 57 18 64 -64 64 -69 0 -76 -2 -92 -26 -11 -18 -19 -59 -24
-129 -8 -112 -60 -335 -109 -465 -40 -108 -39 -100 -90 -519 -24 -197 -64
-399 -90 -458 -14 -33 -24 -43 -42 -43 -33 0 -52 -15 -44 -35 4 -11 12 -15 23
-11 19 8 33 -9 33 -43 0 -29 -118 -314 -210 -507 -134 -281 -218 -402 -494
-709 -81 -91 -161 -182 -175 -203 -15 -20 -49 -54 -74 -75 l-47 -38 -45 16
c-42 14 -48 14 -71 -2 -30 -19 -45 -52 -37 -81 3 -12 -5 -35 -21 -58 -28 -42
-34 -73 -13 -75 42 -5 93 -3 98 5 4 4 9 4 12 -1 4 -5 -5 -31 -19 -57 l-25 -48
24 -36 c64 -98 63 -91 30 -124 -32 -31 -63 -30 -63 3 0 16 -8 19 -45 19 -50 0
-259 -64 -287 -88 -20 -17 -23 -50 -7 -85 14 -32 -10 -81 -51 -102 -19 -10
-30 -23 -30 -37 0 -19 -4 -20 -45 -15 -44 6 -158 -13 -196 -34 -29 -15 -59
-74 -59 -115 0 -45 30 -99 59 -109 31 -10 25 -39 -18 -89 -24 -28 -42 -60 -46
-84 -6 -35 -10 -40 -56 -56 -35 -13 -53 -15 -62 -8 -7 6 -32 14 -54 18 -37 6
-52 1 -130 -41 -118 -64 -209 -130 -217 -157 -7 -29 11 -56 68 -99 29 -21 62
-60 87 -101 22 -39 52 -74 68 -82 15 -8 33 -21 40 -30 19 -23 152 -21 183 3
32 24 61 34 56 19 -2 -6 11 -25 29 -41 18 -16 33 -35 33 -42 0 -21 60 -66 80
-60 9 3 28 1 41 -4 13 -5 21 -10 16 -10 -4 -1 11 -17 33 -37 36 -33 43 -36 77
-28 21 4 46 6 56 5 9 -1 17 3 17 9 0 8 14 9 43 5 l42 -6 28 74 c31 84 60 127
86 127 9 0 22 5 28 11 7 7 19 -1 41 -25 17 -20 36 -36 41 -36 19 0 71 -36 77
-52 7 -22 57 -58 80 -58 9 0 46 -12 82 -26 56 -22 66 -24 80 -11 30 26 56 28
96 8 41 -22 65 -47 66 -71 0 -14 14 -15 95 -12 90 4 95 3 95 -16 0 -27 10 -53
19 -48 4 3 26 0 49 -5 35 -7 49 -6 80 10 20 10 41 18 46 17 23 -3 10 49 -21
90 -56 73 -64 94 -47 118 17 25 18 62 2 72 -13 8 80 58 130 69 17 3 32 10 32
14 0 12 132 23 142 13 6 -6 2 -25 -9 -48 -14 -28 -18 -53 -15 -86 4 -52 8 -53
62 -34 28 10 46 10 95 -1 72 -16 72 -17 108 -15 24 2 27 6 27 36 0 28 6 38 35
55 19 11 35 27 35 36 0 8 7 15 15 15 8 0 15 4 15 8 0 5 22 32 48 60 46 49 74
63 86 43 3 -4 19 -11 34 -14 18 -4 31 -14 35 -26 3 -13 13 -21 27 -21 19 0 21
-4 15 -33 -4 -17 -13 -42 -21 -55 -10 -15 -13 -36 -9 -61 l6 -39 -38 14 c-21
7 -48 13 -60 14 -19 0 -23 -5 -23 -34 0 -44 14 -49 111 -40 52 4 79 3 83 -5 5
-7 14 -6 30 4 21 14 25 13 56 -15 18 -17 30 -30 25 -30 -5 0 -4 -5 3 -12 9 -9
34 10 107 85 81 82 95 100 95 129 0 20 10 45 24 62 l23 30 7 -27 c5 -21 13
-26 43 -29 35 -3 38 -6 61 -63 l24 -60 -31 -57 c-17 -31 -31 -62 -31 -68 0 -7
19 -35 43 -63 65 -78 77 -102 77 -152 0 -43 2 -47 33 -60 31 -13 38 -12 75 6
l40 20 40 -26 40 -26 -16 -59 c-23 -83 -18 -87 118 -85 94 2 113 5 124 20 12
17 16 17 80 -3 l68 -20 30 34 c17 19 38 34 49 34 10 0 28 13 40 29 28 38 54
31 113 -35 35 -40 46 -60 46 -85 0 -19 3 -50 6 -71 6 -35 10 -38 96 -74 63
-26 93 -45 101 -61 5 -13 20 -24 31 -24 21 -2 45 -4 81 -9 11 -2 27 -1 35 3
36 13 62 14 85 4 21 -10 24 -17 19 -40 -3 -16 -1 -27 5 -27 6 0 8 -7 5 -15 -9
-22 21 -29 48 -11 14 9 28 13 32 9 4 -4 12 -1 17 7 9 13 11 13 16 1 3 -7 14
-22 24 -32 16 -16 17 -22 7 -38 -7 -11 -20 -22 -29 -24 -23 -6 -53 -53 -45
-72 3 -8 15 -15 26 -15 34 0 23 -28 -12 -32 l-33 -3 1 -57 1 -57 -29 6 c-22 4
-28 2 -28 -12 0 -9 -8 -33 -17 -52 -16 -35 -16 -36 7 -53 15 -11 19 -19 11
-24 -6 -4 -11 -22 -11 -40 0 -24 -9 -42 -33 -67 -55 -56 -71 -87 -57 -104 9
-11 17 -12 32 -4 26 14 45 -3 23 -21 -8 -7 -15 -17 -15 -22 0 -5 -9 -21 -20
-35 -11 -14 -20 -36 -20 -48 0 -18 -4 -21 -25 -17 -18 3 -26 -1 -31 -14 -3
-11 -10 -26 -15 -34 -5 -8 -12 -22 -15 -30 -3 -8 -22 -22 -42 -31 -33 -14 -38
-20 -40 -54 -2 -21 -5 -41 -7 -45 -9 -14 28 -102 44 -107 56 -18 82 -35 72
-47 -8 -9 -8 -22 0 -44 9 -27 8 -37 -12 -68 -18 -30 -19 -38 -8 -45 8 -5 23
-6 34 -3 11 4 37 6 58 6 29 -1 37 2 37 16 0 18 38 62 53 62 4 0 12 -11 17 -25
5 -14 16 -25 24 -25 9 0 20 -9 26 -20 8 -16 17 -19 38 -14 15 4 33 11 40 17 8
7 12 5 12 -7 0 -21 2 -21 47 10 35 23 38 24 41 7 2 -10 7 -22 11 -26 12 -13
62 -19 75 -9 6 5 26 14 43 20 26 9 36 8 47 -4 9 -8 34 -14 64 -14 l50 0 5 38
c3 27 0 40 -12 50 -9 6 -27 21 -41 33 -14 11 -32 24 -40 29 -11 7 -12 12 -4
20 9 9 17 8 33 -1 18 -12 23 -11 42 10 22 23 25 44 14 96 -6 27 -3 32 29 46
19 9 37 13 38 9 2 -4 13 -11 26 -14 19 -6 22 -4 22 18 0 14 4 28 10 31 13 8
13 72 0 80 -15 10 -12 37 10 80 11 22 20 40 20 40 0 1 -17 2 -37 3 -21 1 -39
6 -41 12 -2 5 -21 14 -42 20 -51 14 -67 58 -43 120 10 24 13 44 7 49 -5 5 -35
5 -68 2 -44 -6 -59 -4 -63 6 -8 19 -33 16 -86 -12 -36 -20 -47 -22 -47 -11 0
8 5 18 10 21 20 13 10 58 -19 84 -18 16 -30 39 -33 61 -3 19 -8 43 -13 53 -6
13 -2 17 17 17 14 0 33 9 43 20 22 25 35 26 35 3 0 -31 37 -76 64 -79 17 -2
26 2 26 12 0 8 5 14 10 14 6 0 10 11 10 24 0 40 62 118 115 147 27 14 53 36
59 48 5 12 24 29 43 37 18 9 33 23 33 30 0 15 96 64 124 64 15 0 56 33 56 45
0 2 -14 11 -30 20 -17 9 -30 19 -30 23 0 5 16 16 37 26 l36 17 -20 20 -20 21
-50 -25 c-27 -14 -55 -33 -62 -41 -18 -22 -58 -20 -71 3 -5 11 -10 47 -10 80
0 48 3 61 15 61 18 0 18 2 4 34 -10 22 -7 30 34 78 50 57 82 109 124 201 21
46 31 57 50 57 12 0 23 5 23 12 0 7 16 28 35 48 33 34 34 36 23 78 -8 31 -8
50 0 68 10 21 9 24 -8 24 -24 0 -24 6 -5 135 16 101 15 116 -16 237 -5 20 -22
47 -38 61 -16 13 -40 46 -54 73 -14 27 -55 79 -91 116 l-66 66 25 77 c26 79
26 95 -3 95 -9 0 -46 10 -82 23 -64 22 -65 22 -67 62 -2 22 -5 48 -7 58 -2 10
2 17 9 17 24 0 28 21 9 39 -39 35 -96 61 -135 61 -51 0 -51 19 1 54 40 26 51
51 28 59 -10 3 -10 7 0 19 10 13 9 16 -8 21 -14 3 -18 10 -14 22 4 10 -4 27
-22 46 -15 16 -24 29 -20 29 5 0 3 7 -4 15 -21 25 4 45 42 34 32 -9 57 -1 91
29 9 8 17 12 17 8 0 -14 59 35 65 55 6 19 7 19 36 -5 18 -15 48 -27 77 -31 26
-3 58 -8 72 -11 33 -7 35 -5 35 34 0 22 -6 37 -18 43 -9 6 -23 25 -31 44 -10
23 -24 37 -41 41 -22 5 -27 18 -7 19 4 1 20 4 35 8 38 10 97 -17 90 -42 -3
-11 7 -27 26 -44 28 -23 37 -25 88 -20 32 3 63 9 69 14 16 13 52 -17 59 -49 5
-26 9 -28 58 -27 47 0 53 -3 65 -28 9 -19 19 -26 29 -23 8 3 24 -1 36 -9 33
-23 37 -19 35 37 0 39 -6 56 -19 66 -11 7 -19 17 -19 23 0 12 51 0 71 -18 9
-7 23 -11 32 -7 9 3 26 -1 38 -9 26 -19 63 -8 97 29 13 13 29 24 36 24 8 0 19
7 26 15 7 8 21 15 31 15 10 0 35 11 55 25 20 13 52 28 72 31 20 4 58 20 85 36
53 31 64 29 106 -16 29 -31 32 -31 59 -9 11 10 39 34 62 53 48 40 70 77 70
119 0 24 5 30 29 36 16 3 32 12 34 19 8 20 -4 96 -15 96 -5 0 -42 26 -81 58
-78 62 -134 92 -172 92 -19 0 -25 5 -25 23 0 50 11 66 49 73 42 8 71 30 71 55
0 10 5 21 10 24 6 3 10 21 10 39 l0 33 94 6 c107 6 130 19 141 81 11 57 61
114 107 121 44 8 67 36 94 118 16 48 21 51 78 47 36 -2 96 29 96 51 0 8 -11
26 -25 39 -14 13 -32 48 -41 76 -14 50 -14 55 5 93 12 22 21 46 21 53 0 7 12
36 25 63 29 58 31 103 9 167 -11 34 -22 48 -40 52 -28 7 -58 59 -101 171 -11
28 -26 50 -34 50 -7 0 -22 -18 -32 -40 -35 -75 -38 -76 -123 -49 -41 13 -81
24 -89 24 -8 0 -15 7 -15 15 0 12 -17 15 -92 15 -89 0 -96 2 -158 38 l-65 38
3 61 c3 46 -1 70 -17 101 -27 52 -27 53 8 46 22 -5 32 -1 44 16 12 17 22 21
40 16 13 -3 31 0 41 7 15 11 11 16 -34 52 l-51 40 6 48 c5 31 3 53 -5 62 -10
12 -7 20 12 44 28 35 81 49 189 50 43 0 81 1 85 2 28 5 74 -3 86 -14 22 -22
58 -26 99 -12 34 12 46 12 82 1 84 -27 95 -28 108 -5 12 24 28 270 29 450 0
95 4 125 20 162 11 25 19 59 18 76 -1 16 5 38 13 48 9 10 49 77 89 148 55 98
80 156 102 235 16 58 30 112 30 120 1 8 -6 63 -16 121 -9 59 -16 136 -16 173
0 39 -4 66 -10 66 -17 0 -39 61 -30 84 4 12 13 40 19 63 9 33 18 43 43 52 l32
11 -22 16 c-17 12 -20 19 -12 33 8 17 -1 115 -16 161 -4 13 -6 13 -14 0 -8
-13 -14 -13 -42 -1 -18 7 -42 14 -53 16 -142 25 -158 36 -149 109 4 28 13 59
22 69 22 25 8 32 -22 12 -34 -23 -110 -14 -177 21 -27 13 -55 24 -63 24 -26 0
-65 22 -60 34 2 6 -12 22 -31 36 -28 21 -36 35 -45 80 -5 30 -17 78 -26 107
-11 34 -14 65 -10 96 6 41 5 47 -21 65 -16 11 -37 22 -48 24 -11 1 -22 6 -25
9 -12 15 -48 19 -59 5 -10 -12 -19 -11 -61 5 -28 10 -54 18 -58 18 -4 -1 -32
-5 -62 -10z m-2630 -1332 c0 -4 -9 -3 -20 3 -28 15 -37 -10 -17 -47 9 -15 21
-42 28 -60 8 -17 21 -34 30 -36 15 -4 15 -11 7 -58 -7 -36 -6 -60 1 -76 17
-37 14 -130 -4 -141 -13 -7 -14 -14 -5 -36 16 -43 13 -86 -7 -93 -35 -12 -83
-54 -83 -72 0 -23 97 -119 127 -127 13 -3 36 -1 53 4 33 12 57 7 143 -32 77
-35 110 -34 137 4 17 23 29 30 55 30 19 0 37 5 40 10 12 19 44 11 47 -12 3
-20 8 -23 46 -20 33 3 42 0 42 -12 0 -11 -9 -16 -27 -16 -16 0 -33 -4 -39 -8
-6 -4 -41 -55 -77 -114 l-66 -106 -1 -176 -2 -176 34 -32 c18 -18 48 -54 65
-80 l33 -48 185 0 c102 0 185 -4 185 -9 0 -37 -15 -71 -31 -71 -10 0 -21 -4
-24 -10 -3 -5 -25 -10 -48 -10 -47 0 -270 55 -274 67 -10 28 -21 34 -44 24
-13 -6 -51 -18 -84 -27 -51 -14 -71 -28 -131 -85 -58 -56 -76 -69 -103 -69
-27 0 -34 -5 -46 -34 -17 -40 -35 -55 -35 -29 0 27 36 80 59 88 12 3 21 12 21
19 0 30 -31 98 -80 177 -83 133 -126 178 -197 211 -34 15 -70 28 -78 28 -14 0
-13 3 2 26 16 24 16 27 0 36 -12 6 -17 22 -17 52 0 52 -11 62 -76 77 -109 24
-117 23 -142 -10 -29 -40 -46 -39 -85 5 -50 58 -58 93 -51 219 l6 110 -63 128
c-35 70 -69 127 -77 127 -7 0 -12 4 -10 10 2 5 121 111 266 235 220 190 268
227 298 229 21 2 50 16 72 33 37 31 37 31 49 9 7 -11 12 -25 13 -29z m-112
-1301 c63 -32 125 -101 194 -216 69 -114 81 -155 48 -165 -20 -6 -47 -52 -65
-112 -5 -17 -2 -23 9 -23 30 0 16 -36 -28 -73 -25 -20 -47 -37 -51 -37 -3 0
-79 -52 -169 -115 -90 -63 -185 -127 -212 -141 -27 -14 -65 -40 -86 -57 -20
-18 -46 -39 -59 -48 -18 -13 -20 -18 -10 -36 6 -12 11 -33 11 -48 0 -14 6 -41
14 -60 11 -25 12 -36 3 -42 -6 -3 -13 -1 -15 5 -2 7 -12 12 -22 12 -9 0 -23 7
-30 15 -14 16 -92 19 -121 4 -13 -7 -18 -3 -21 21 -3 17 -1 30 4 30 13 0 9 30
-6 45 -7 8 -23 11 -35 8 -23 -6 -28 -19 -8 -26 7 -3 5 -6 -5 -6 -10 -1 -18 3
-18 8 0 5 -10 13 -21 16 -19 7 -20 8 -5 23 12 13 19 14 28 4 18 -18 28 -15 28
8 0 11 7 23 15 26 8 4 15 12 15 20 0 18 56 74 74 74 8 0 18 10 22 23 3 12 15
30 25 40 11 10 19 25 19 35 0 11 17 24 45 37 53 23 57 33 13 37 -27 2 -35 9
-43 35 -17 51 -23 49 -22 -9 0 -29 -2 -62 -6 -73 -3 -11 -6 -24 -6 -28 -1 -5
-16 -7 -33 -5 -27 2 -34 8 -36 30 -2 17 4 34 18 48 16 16 19 25 11 33 -17 17
-13 34 14 61 30 30 31 49 5 85 -10 15 -29 54 -41 87 -12 32 -28 67 -37 77 -8
9 -12 17 -9 17 3 0 1 15 -4 33 -6 17 -13 60 -15 94 -5 58 -4 63 20 78 24 16
27 16 42 0 15 -15 18 -15 40 6 l24 23 15 -21 c8 -12 25 -23 38 -25 12 -2 22
-10 22 -18 0 -21 64 -14 91 11 11 10 25 19 30 19 5 0 32 16 59 35 42 31 52 43
60 82 9 41 14 48 45 58 46 15 79 11 138 -19z m976 -784 c-49 -74 -195 -184
-324 -243 -14 -6 -33 -15 -43 -20 -26 -14 -38 -2 -25 26 22 48 193 147 239
138 20 -4 37 6 82 47 31 28 59 60 62 71 4 10 11 17 16 13 6 -3 3 -16 -7 -32z
m-408 -275 c13 -13 -18 -65 -56 -96 -23 -18 -43 -46 -50 -68 -7 -21 -23 -63
-37 -95 -23 -51 -28 -57 -61 -61 -69 -11 -102 -19 -102 -27 0 -4 -17 -11 -37
-14 -81 -15 -124 -18 -122 -10 3 21 -2 34 -14 34 -7 0 -18 9 -24 20 -9 13 -29
21 -63 26 -44 6 -53 11 -67 38 -22 43 -53 76 -74 76 -9 0 -19 6 -22 13 -4 11
-17 11 -74 1 -37 -6 -75 -15 -83 -18 -10 -4 -24 2 -37 16 -23 25 -32 45 -20
47 4 0 24 8 45 17 39 16 36 16 154 -18 43 -13 126 -70 209 -142 86 -76 113
-96 131 -96 15 0 105 27 158 47 8 3 26 8 40 10 14 2 28 7 31 11 12 13 29 75
29 103 0 15 4 29 8 31 17 6 22 66 7 78 -20 16 -19 26 5 58 17 23 27 27 70 26
27 0 53 -3 56 -7z m-3134 -1732 c16 -14 36 -25 43 -25 7 0 15 -5 17 -12 3 -7
21 -11 45 -10 35 2 45 -3 67 -28 13 -17 34 -30 46 -30 25 0 70 -45 70 -71 0
-18 53 -69 73 -69 7 0 3 -7 -8 -16 -20 -15 -19 -16 15 -44 72 -60 143 -77 178
-42 18 18 20 18 55 -5 27 -17 35 -28 30 -40 -12 -36 -26 -43 -79 -43 -44 0
-64 6 -105 33 -54 34 -225 195 -222 207 1 4 -10 10 -25 13 -15 3 -61 25 -102
48 -41 23 -91 50 -110 59 -19 10 -43 27 -53 37 -16 18 -16 20 3 41 26 27 26
27 62 -3z m-168 -114 c8 -7 25 -33 36 -57 12 -24 25 -44 29 -44 12 0 31 -84
30 -131 -1 -26 1 -51 5 -57 3 -5 34 -13 68 -17 63 -6 122 -27 133 -46 11 -17
-16 -39 -49 -39 -17 0 -43 -7 -58 -14 -25 -13 -32 -12 -75 10 -27 13 -58 24
-69 24 -16 0 -28 13 -45 48 -13 26 -34 51 -46 57 -13 5 -23 20 -25 35 -3 24
-6 25 -67 25 -53 0 -69 4 -89 21 -19 19 -28 21 -55 13 -53 -15 -89 -12 -85 8
2 10 15 23 29 30 15 7 32 26 39 42 8 20 21 31 41 35 16 3 29 11 29 18 0 13 22
24 85 44 41 14 120 10 139 -5z m1487 -228 c30 6 32 5 17 -7 -10 -7 -18 -18
-18 -25 0 -6 -6 -11 -12 -12 -128 -11 -184 -24 -225 -51 -22 -15 -77 -35 -132
-48 -100 -23 -156 -19 -205 16 -24 16 -62 19 -71 4 -5 -8 -11 -7 -21 1 -16 13
-18 33 -5 58 9 16 17 17 63 8 29 -5 83 -20 120 -34 77 -28 109 -26 205 17 34
16 64 26 66 23 7 -6 132 36 154 52 12 9 20 10 24 3 4 -7 21 -8 40 -5z m-1887
-126 c-1 -13 34 -34 87 -50 21 -7 47 -59 55 -109 6 -33 10 -38 40 -44 19 -3
41 -3 50 0 10 4 25 -5 41 -25 25 -29 29 -31 76 -25 28 4 63 14 78 22 16 8 43
16 61 18 22 3 45 18 75 50 37 38 42 49 33 65 -12 24 -8 27 49 36 48 8 61 -1
61 -43 0 -15 10 -29 30 -40 16 -9 30 -22 30 -29 0 -16 -28 -6 -55 18 -12 10
-36 22 -53 25 -26 5 -38 2 -57 -16 -28 -26 -32 -55 -10 -64 8 -3 21 -17 27
-32 12 -25 15 -26 75 -21 65 5 86 -6 33 -18 -16 -4 -30 -11 -30 -16 0 -19 -63
-8 -92 16 -38 32 -70 32 -160 -4 -40 -15 -81 -31 -90 -34 -11 -4 -18 -17 -18
-32 0 -16 7 -28 18 -31 38 -12 67 -34 70 -53 2 -11 12 -23 23 -26 11 -4 27
-19 37 -33 35 -57 61 -67 177 -71 22 -1 46 -8 55 -15 8 -8 30 -21 49 -31 32
-16 35 -16 47 0 11 14 16 15 38 3 14 -7 24 -15 24 -18 -3 -13 28 -50 42 -50
12 -1 11 -4 -4 -15 -19 -14 -19 -15 -1 -35 10 -11 26 -20 35 -20 27 0 36 -49
13 -70 -20 -19 -83 -35 -83 -20 0 5 -4 20 -10 34 -12 32 -38 25 -42 -12 -2
-21 -8 -27 -28 -27 -14 0 -33 3 -43 8 -12 6 -31 2 -57 -12 -22 -11 -42 -16
-45 -11 -3 5 -21 17 -40 26 -50 24 -112 109 -120 167 -4 26 -12 47 -19 47 -6
0 -23 11 -38 25 -35 33 -123 67 -162 63 -25 -2 -31 1 -36 21 -5 24 -37 43 -54
33 -6 -3 -25 -6 -43 -7 -42 -1 -44 22 -3 36 17 6 30 17 30 25 0 18 -56 119
-76 135 -19 16 -130 16 -214 0 -51 -10 -74 -10 -108 0 -41 11 -43 13 -36 43 3
17 24 50 45 73 24 26 39 52 39 68 0 19 10 29 43 46 23 12 61 32 85 44 23 12
39 25 35 30 -5 4 -1 6 7 3 8 -3 14 -12 14 -21z m1189 -2 c33 -33 -39 -123
-123 -154 -19 -8 -59 -25 -88 -38 l-53 -24 -64 20 c-35 12 -75 32 -89 46 -14
14 -30 25 -36 25 -14 0 -13 37 3 43 7 4 6 6 -4 6 -18 1 -33 27 -24 41 10 17
120 -25 154 -59 27 -27 69 -33 140 -22 79 13 125 39 128 72 0 13 1 32 2 42 1
21 34 23 54 2z m-1518 -397 c42 -22 65 -52 65 -82 0 -58 15 -65 55 -24 54 53
83 63 136 44 l44 -15 -55 -1 c-36 0 -66 -7 -87 -20 -33 -20 -44 -54 -20 -63 6
-3 -4 -6 -24 -6 -40 -1 -60 19 -73 72 -3 15 -29 50 -56 76 -50 49 -62 75 -37
84 6 2 17 -9 22 -25 6 -17 20 -35 30 -40z"/>
<path d="M5322 9044 c-31 -21 -31 -83 1 -111 45 -41 147 -36 185 10 12 13 27
15 91 10 63 -5 95 -1 167 17 49 13 93 27 98 32 6 4 36 8 67 8 62 0 84 15 54
37 -24 17 -98 16 -260 -2 -166 -19 -240 -19 -301 0 -62 19 -74 19 -102 -1z"/>
<path d="M5069 8990 c-48 -28 -335 -115 -464 -141 -143 -29 -175 -42 -175 -73
0 -5 -14 -25 -32 -43 -28 -29 -31 -36 -22 -60 14 -40 57 -53 86 -26 13 11 28
19 34 16 6 -2 14 5 17 17 3 13 13 20 30 20 14 0 29 5 32 10 3 6 21 10 40 10
57 0 144 33 188 70 37 32 47 35 116 38 80 4 104 14 94 38 -3 9 2 14 14 14 11
0 28 7 39 15 10 8 28 15 40 15 11 0 29 9 38 19 10 11 30 21 44 23 35 4 39 26
7 38 -33 12 -105 13 -126 0z"/>
<path d="M4130 8507 c-65 -35 -158 -100 -189 -132 -38 -40 -158 -125 -178
-125 -15 0 -36 -37 -28 -50 8 -13 45 -13 45 1 0 6 21 9 56 8 53 -3 56 -1 93
39 21 23 44 42 50 42 6 0 20 9 31 20 19 19 19 22 5 36 -8 9 -15 19 -15 23 0 5
28 18 63 31 34 12 76 33 94 46 17 13 45 24 61 24 29 0 48 22 36 41 -8 14 -96
11 -124 -4z"/>
<path d="M3758 8087 c-24 -20 -116 -159 -204 -309 -61 -102 -82 -271 -39 -317
13 -15 21 -16 50 -7 19 6 35 14 35 18 0 5 9 8 20 8 11 0 20 4 20 10 0 5 7 7
15 4 9 -4 18 3 24 17 15 36 43 64 76 78 30 12 85 80 85 104 0 8 11 24 25 37
24 22 25 29 25 137 0 98 -3 116 -19 132 -10 10 -22 30 -26 43 -11 35 -34 68
-48 68 -6 0 -24 -10 -39 -23z"/>
<path d="M915 2240 c-22 -11 -60 -22 -85 -25 -47 -7 -145 -41 -168 -58 -8 -6
-11 -19 -7 -31 3 -12 8 -32 11 -45 3 -13 9 -32 15 -42 7 -14 2 -26 -22 -54
-30 -34 -31 -37 -15 -54 12 -13 14 -21 6 -26 -8 -5 -6 -14 5 -31 9 -14 13 -29
10 -34 -8 -12 64 -90 82 -90 7 0 13 -7 13 -15 0 -26 50 -37 138 -32 46 3 85 7
87 9 3 2 0 32 -6 67 -11 60 -6 89 10 63 6 -10 14 -9 37 3 34 17 54 19 54 5 0
-15 30 -12 31 3 1 6 0 20 -1 30 -1 17 5 15 54 -12 31 -17 63 -28 71 -25 14 6
67 -19 93 -43 7 -7 19 -13 25 -14 68 -3 102 -12 114 -29 7 -10 20 -17 27 -14
22 9 31 -17 27 -84 -2 -51 0 -66 15 -76 23 -17 139 -10 170 11 14 9 24 11 24
5 0 -6 -7 -15 -15 -19 -12 -7 -13 -12 -3 -26 18 -24 83 -6 92 26 4 16 8 18 14
9 9 -14 72 -6 72 9 0 5 11 14 25 19 14 5 25 13 25 18 0 17 55 36 96 33 36 -2
52 6 161 82 96 66 137 102 192 170 47 56 69 91 65 101 -9 22 -19 20 -56 -13
-80 -69 -100 -67 -175 14 -49 54 -66 65 -92 65 -37 0 -65 26 -87 79 -14 35
-21 41 -66 51 -61 15 -69 9 -83 -63 -10 -51 -11 -52 -58 -65 -27 -8 -75 -29
-107 -48 l-59 -34 -53 14 c-29 8 -66 19 -81 25 -39 15 -47 14 -47 -9 0 -11 -4
-20 -9 -20 -5 0 -8 8 -7 18 1 13 -7 17 -36 17 -29 0 -45 8 -75 37 -30 28 -51
39 -95 47 -62 11 -127 40 -171 77 -28 24 -87 44 -122 43 -11 0 -38 -9 -60 -19z"/>
</g>
</svg>
